<svg width="67" height="65" viewBox="0 0 67 65" fill="none" xmlns="http://www.w3.org/2000/svg">
<rect width="66.1017" height="65" rx="10" fill="#91C490"/>
<path fill-rule="evenodd" clip-rule="evenodd" d="M10.1699 31.6875C10.1699 20.92 20.2346 12 32.9619 12C45.7174 12 55.9326 20.9401 55.9326 31.6875C55.9326 42.4288 45.7245 51.375 32.9619 51.375C30.005 51.375 27.1402 50.8964 24.4327 49.9513C21.695 52.5344 18.0125 54 14.192 54C12.9984 54 12.4032 52.5826 13.2441 51.7594C15.2554 49.7904 16.066 46.9345 15.3983 44.2393C12.0239 40.7184 10.1699 36.2744 10.1699 31.6875ZM24.581 47.2011C27.2172 48.2289 30.0368 48.7675 32.9615 48.7675C44.149 48.7675 53.2687 41.0958 53.2687 31.6875C53.2687 22.2793 44.149 14.6075 32.9615 14.6075C21.8725 14.6075 12.833 22.2793 12.833 31.6875C12.833 35.6983 14.526 39.5962 17.5677 42.6634C17.7222 42.819 17.8348 43.0098 17.8954 43.2186C18.6645 45.8657 18.3416 48.6598 17.0781 51.0301C19.3713 50.4748 21.4764 49.2668 23.0958 47.5344C23.472 47.1319 24.0632 46.9993 24.581 47.2011Z" fill="white"/>
<path fill-rule="evenodd" clip-rule="evenodd" d="M18.3055 32C18.3055 29.7944 20.1304 28 22.3733 28C24.6163 28 26.4411 29.7944 26.4411 32C26.4411 34.2056 24.6163 36 22.3733 36C20.1304 36 18.3055 34.2056 18.3055 32ZM21.0174 32C21.0174 32.7352 21.6257 33.3333 22.3733 33.3333C23.121 33.3333 23.7293 32.7352 23.7293 32C23.7293 31.2648 23.121 30.6667 22.3733 30.6667C21.6257 30.6667 21.0174 31.2648 21.0174 32Z" fill="white"/>
<path fill-rule="evenodd" clip-rule="evenodd" d="M28.475 32C28.475 29.7944 30.2998 28 32.5428 28C34.7858 28 36.6106 29.7944 36.6106 32C36.6106 34.2056 34.7858 36 32.5428 36C30.2998 36 28.475 34.2056 28.475 32ZM31.1868 32C31.1868 32.7352 31.7951 33.3333 32.5428 33.3333C33.2904 33.3333 33.8987 32.7352 33.8987 32C33.8987 31.2648 33.2904 30.6667 32.5428 30.6667C31.7951 30.6667 31.1868 31.2648 31.1868 32Z" fill="white"/>
<path fill-rule="evenodd" clip-rule="evenodd" d="M39.6614 32C39.6614 29.7944 41.4863 28 43.7292 28C45.9722 28 47.797 29.7944 47.797 32C47.797 34.2056 45.9722 36 43.7292 36C41.4863 36 39.6614 34.2056 39.6614 32ZM42.3733 32C42.3733 32.7352 42.9816 33.3333 43.7292 33.3333C44.4769 33.3333 45.0852 32.7352 45.0852 32C45.0852 31.2648 44.4769 30.6667 43.7292 30.6667C42.9816 30.6667 42.3733 31.2648 42.3733 32Z" fill="white"/>
</svg>
