<svg width="18" height="20" viewBox="0 0 18 20" fill="none" xmlns="http://www.w3.org/2000/svg">
<path d="M13 0H5C2.24 0 0 2.24 0 5V15C0 17.76 2.24 20 5 20H13C15.76 20 18 17.76 18 15V5C18 2.24 15.76 0 13 0ZM5.86 16.63C5.67 16.82 5.42 16.92 5.16 16.92C5.02831 16.9213 4.89769 16.8963 4.77578 16.8465C4.65386 16.7968 4.54311 16.7231 4.45 16.63C4.35551 16.5374 4.28034 16.4269 4.22885 16.3051C4.17735 16.1832 4.15055 16.0523 4.15 15.92C4.15 15.66 4.26 15.4 4.45 15.21C4.54 15.12 4.65 15.05 4.77 15C5.02 14.9 5.29 14.9 5.54 15C5.6 15.02 5.66 15.05 5.71 15.09C5.77 15.12 5.82 15.17 5.86 15.21C6.05 15.4 6.16 15.66 6.16 15.92C6.15945 16.0523 6.13265 16.1832 6.08115 16.3051C6.02966 16.4269 5.95449 16.5374 5.86 16.63ZM4.15 11.92C4.15 11.79 4.18 11.66 4.23 11.54C4.28014 11.4182 4.35389 11.3075 4.447 11.2144C4.54012 11.1212 4.65076 11.0474 4.77254 10.9972C4.89432 10.947 5.02483 10.9214 5.15655 10.9219C5.28827 10.9224 5.41859 10.9489 5.54 11C5.6 11.02 5.66 11.05 5.71 11.09C5.77 11.12 5.82 11.17 5.86 11.21C5.95 11.31 6.03 11.41 6.08 11.54C6.13 11.66 6.15 11.79 6.15 11.92C6.15168 12.0847 6.11224 12.2472 6.03528 12.3928C5.95831 12.5384 5.84623 12.6625 5.7092 12.7538C5.57218 12.8452 5.41452 12.9009 5.25053 12.9159C5.08653 12.931 4.92137 12.9049 4.77 12.84C4.58738 12.765 4.43105 12.6376 4.32072 12.4739C4.21039 12.3101 4.15099 12.1174 4.15 11.92ZM9.86 16.63C9.77 16.72 9.66 16.79 9.54 16.84C9.35828 16.9188 9.15703 16.9408 8.96256 16.9034C8.76809 16.8659 8.58945 16.7706 8.45 16.63C8.35551 16.5374 8.28034 16.4269 8.22885 16.3051C8.17735 16.1832 8.15055 16.0523 8.15 15.92C8.15 15.85 8.16 15.79 8.17 15.72L8.23 15.54L8.32 15.36C8.36 15.31 8.4 15.26 8.45 15.21C8.63946 15.0278 8.89213 14.926 9.155 14.926C9.41787 14.926 9.67054 15.0278 9.86 15.21C10.05 15.4 10.15 15.66 10.15 15.92C10.15 16.19 10.05 16.44 9.86 16.63ZM9.86 12.63C9.76689 12.7231 9.65614 12.7968 9.53422 12.8465C9.41231 12.8963 9.28168 12.9213 9.15 12.92C8.89 12.92 8.64 12.82 8.45 12.63C8.35551 12.5374 8.28034 12.4269 8.22885 12.3051C8.17735 12.1832 8.15055 12.0523 8.15 11.92C8.15 11.66 8.26 11.4 8.45 11.21C8.82 10.84 9.49 10.84 9.86 11.21C9.95 11.31 10.03 11.41 10.08 11.54C10.13 11.66 10.15 11.79 10.15 11.92C10.15 12.19 10.05 12.44 9.86 12.63ZM6 8.46C4.97 8.46 4.12 7.62 4.12 6.58V5.58C4.12 4.55 4.96 3.7 6 3.7H12C13.03 3.7 13.88 4.54 13.88 5.58V6.58C13.88 7.61 13.04 8.46 12 8.46H6ZM13.86 16.63C13.7201 16.7699 13.5415 16.8647 13.3472 16.9021C13.1529 16.9396 12.9519 16.9179 12.77 16.84C12.6507 16.7915 12.542 16.7202 12.45 16.63C12.3569 16.5369 12.2832 16.4261 12.2335 16.3042C12.1837 16.1823 12.1587 16.0517 12.16 15.92C12.16 15.66 12.26 15.4 12.45 15.21C12.72 14.93 13.17 14.85 13.54 15C13.66 15.05 13.77 15.12 13.86 15.21C14.05 15.4 14.15 15.66 14.15 15.92C14.15 16.19 14.05 16.44 13.86 16.63ZM14.08 12.3C14.0055 12.485 13.8768 12.6432 13.7109 12.7538C13.5449 12.8644 13.3494 12.9224 13.15 12.92C12.89 12.92 12.64 12.82 12.45 12.63C12.3555 12.5374 12.2803 12.4269 12.2288 12.3051C12.1773 12.1832 12.1505 12.0523 12.15 11.92C12.15 11.66 12.26 11.4 12.45 11.21C12.82 10.84 13.49 10.84 13.86 11.21C14.05 11.4 14.16 11.66 14.16 11.92C14.16 12.05 14.13 12.18 14.08 12.3Z" fill="#91C490"/>
</svg>
