<svg width="58" height="61" viewBox="0 0 58 61" fill="none" xmlns="http://www.w3.org/2000/svg">
<path fill-rule="evenodd" clip-rule="evenodd" d="M56.5292 28.9434L53.9685 27.9166V26.2839C54.0045 16.2633 47.2242 7.32263 37.0802 4.01581V1.71482C37.0802 1.03182 36.4858 0.477539 35.7538 0.477539H21.5582C20.8262 0.477539 20.2318 1.03182 20.2318 1.71482V4.02796C10.0878 7.33479 3.30745 16.2754 3.34342 26.2961V27.9413L0.809326 28.9434C0.318335 29.1367 0 29.5857 0 30.0817V36.5767C0 37.2593 0.594405 37.8136 1.32684 37.8136H3.05161V40.2882C3.05161 40.9707 3.64556 41.525 4.378 41.525H9.14089C9.59321 43.0738 10.2578 44.5635 11.1174 45.9538L7.74795 49.0963C7.23313 49.5785 7.23313 50.3579 7.74795 50.8405L13.3862 56.0982C13.9033 56.5783 14.7392 56.5783 15.2567 56.0982L18.6262 52.9562C20.1135 53.7578 21.7057 54.3762 23.3625 54.7993V59.2407C23.3625 59.9233 23.9569 60.4775 24.6894 60.4775H32.6491C33.3815 60.4775 33.9759 59.9233 33.9759 59.2407V54.7993C35.6369 54.3775 37.2339 53.7591 38.7253 52.9562L42.0953 56.0982C42.6124 56.5783 43.4482 56.5783 43.9657 56.0982L49.604 50.8405C50.1189 50.3579 50.1189 49.5785 49.604 49.0963L46.2341 45.9538C47.0938 44.5635 47.7588 43.0738 48.2111 41.525H52.9735C53.706 41.525 54.3004 40.9707 54.3004 40.2882V37.8136H56.0251C56.7576 37.8136 57.3515 37.2593 57.3515 36.5767V30.0817C57.3488 29.582 57.0242 29.1329 56.5292 28.9434ZM22.8583 2.96424H34.4268V23.6362H22.8849L22.8583 2.96424ZM47.2421 39.051H51.6597L51.6466 37.8137H39.5076C38.9025 42.4701 34.9664 46.1396 29.9729 46.7048C23.9789 47.3841 18.5304 43.403 17.8033 37.8137H5.67786V39.051H10.0954C10.7321 39.0371 11.2878 39.448 11.4223 40.0279C11.8849 41.959 12.7208 43.7951 13.8898 45.4466C14.2306 45.9355 14.1578 46.5799 13.7172 46.9929L10.5464 49.9496L14.3008 53.451L17.4715 50.4942C17.9149 50.0834 18.6059 50.0154 19.1302 50.3332C20.9116 51.4146 22.89 52.1814 24.9672 52.5973C25.5895 52.7223 26.0301 53.2405 26.0153 53.8342V58.0404H31.3218V53.8715C31.3074 53.2778 31.7476 52.7592 32.3699 52.6342C34.4476 52.2175 36.4255 51.4502 38.2073 50.3706C38.7316 50.0523 39.4227 50.1207 39.8656 50.5311L43.0363 53.4879L46.8307 49.9743L43.6599 47.0176C43.2198 46.6046 43.1465 45.9602 43.4877 45.4713C44.646 43.8097 45.4683 41.9653 45.9153 40.0279C46.0492 39.448 46.6054 39.0371 47.2421 39.051ZM20.5099 37.8137H36.8411C36.1114 42.0224 31.8606 44.8827 27.3478 44.2023C23.8268 43.6714 21.0661 41.0971 20.4969 37.8137H20.5099ZM2.64061 35.3395H54.7117V30.9229L52.1516 29.8961C51.6606 29.7032 51.3422 29.2542 51.3422 28.7581V26.2836C51.3796 17.6326 45.7318 9.84121 37.1071 6.65051V24.8735C37.1071 25.5561 36.5127 26.1104 35.7803 26.1104H21.5586C20.8262 26.1104 20.2322 25.5561 20.2322 24.8735V6.65051C11.6219 9.84247 5.98088 17.6188 6.0101 26.2588V28.733C6.0101 29.2294 5.69177 29.6785 5.20078 29.8713L2.64061 30.8981V35.3395Z" fill="#025A00"/>
</svg>
