<svg width="56" height="67" viewBox="0 0 56 67" fill="none" xmlns="http://www.w3.org/2000/svg">
<path fill-rule="evenodd" clip-rule="evenodd" d="M45.7487 30.0783L45.7487 64.7801C45.7487 65.5217 45.1669 66.1234 44.4501 66.1234H37.8393C37.1225 66.1234 36.5408 65.5217 36.5408 64.7797L36.5408 31.7575C36.5408 31.016 37.1225 30.4143 37.8393 30.4143H39.4631L39.4631 12.0761C39.4631 11.3346 40.0448 10.7323 40.7617 10.7323H48.6578C50.3462 10.7323 51.5282 9.08001 52.2164 7.73674L44.6578 7.73674C43.941 7.73674 43.3592 7.13498 43.3592 6.39302V3.08835L23.6181 3.08835L7.9552 10.2489L28.3195 10.2489C29.0363 10.2489 29.6185 10.8507 29.6185 11.5922V12.8285L31.1899 12.8285C31.9067 12.8285 32.4884 13.4302 32.4884 14.1718C32.4884 14.9133 31.9067 15.515 31.1899 15.515L29.6185 15.515V18.7664H31.1899C31.9067 18.7664 32.4884 19.3686 32.4884 20.1102C32.4884 20.8517 31.9067 21.4534 31.1899 21.4534H29.6185V24.7048H31.1899C31.9067 24.7048 32.4884 25.3066 32.4884 26.0481C32.4884 26.7896 31.9067 27.3914 31.1899 27.3914H29.6185L29.6185 30.4143H30.6961C31.413 30.4143 31.9951 31.016 31.9951 31.7575L31.9951 64.7797C31.9951 65.5212 31.413 66.123 30.6961 66.123H23.2282C22.5114 66.123 21.9296 65.5212 21.9296 64.7797L21.9296 44.4264C18.0902 42.5077 14.0124 41.1522 9.81217 40.3961C3.21462 39.2809 1.47425 34.2834 1.47425 31.798C1.47425 31.0561 2.05599 30.4543 2.77282 30.4543L27.0209 30.4543L27.0209 12.9896L1.799 12.9896C1.17546 13.0042 0.63113 12.5581 0.5 11.9281V11.6459C0.50396 11.1152 0.809349 10.6358 1.27932 10.4237L22.8255 0.522447C22.9892 0.445521 23.1661 0.404098 23.3452 0.401367L44.6578 0.401367C45.3746 0.401367 45.9568 1.00313 45.9564 1.74463V5.04976L54.1385 4.95599C54.2789 4.95053 54.4206 4.96783 54.5557 5.00834C55.2439 5.21772 55.6386 5.96333 55.4375 6.67524C55.3596 6.98431 53.4894 13.3929 48.671 13.3929H42.0866V21.2386L49.3337 21.2386C54.5284 21.5208 55.4894 28.2781 55.4894 28.5603C55.4974 28.6222 55.5 28.6855 55.5 28.7469C55.4947 29.4884 54.9077 30.0852 54.1909 30.0783H45.7487ZM29.3974 35.7884V33.1014L4.31851 33.0878C4.79904 34.6195 6.17549 37.0106 10.2406 37.6956C14.9838 38.5555 19.5721 40.1541 23.8515 42.4382C24.2687 42.6744 24.5283 43.1287 24.527 43.6203L24.527 63.4095H29.3974V62.227H27.826C27.1087 62.227 26.527 61.6252 26.527 60.8837C26.527 60.1422 27.1087 59.5405 27.826 59.5405H29.3974V56.2891H27.826C27.1087 56.2891 26.527 55.6873 26.527 54.9458C26.527 54.2043 27.1087 53.6021 27.826 53.6021H29.3974V50.3512H27.826C27.1087 50.3512 26.527 49.7494 26.527 49.0079C26.527 48.266 27.1087 47.6642 27.826 47.6642H29.3974L29.3974 44.4133H27.826C27.1087 44.4133 26.527 43.8115 26.527 43.0695C26.527 42.328 27.1087 41.7263 27.826 41.7263H29.3974V38.4754H27.826C27.1087 38.4754 26.527 37.8731 26.527 37.1316C26.527 36.3901 27.1087 35.7884 27.826 35.7884H29.3974ZM42.0597 30.4144V23.8583L49.2422 23.8583C51.1251 23.9657 52.0734 25.9003 52.528 27.3378L44.4364 27.3378C43.7196 27.3378 43.1378 27.9395 43.1378 28.6815V30.3607L42.0597 30.4144ZM39.1382 33.1013L39.1382 63.4364H43.151L43.151 33.1013H39.1382Z" fill="#025A00"/>
</svg>
