<svg width="41" height="61" viewBox="0 0 41 61" fill="none" xmlns="http://www.w3.org/2000/svg">
<path fill-rule="evenodd" clip-rule="evenodd" d="M17.978 59.7772L17.978 17.6474L38.9119 17.6474C39.6085 17.6474 40.1738 17.107 40.1738 16.4405V2.07545C40.1738 1.40901 39.6085 0.868164 38.9119 0.868164L1.76366 0.868164C1.06704 0.868164 0.501698 1.40901 0.501698 2.07545L0.501698 59.7772C0.501698 60.4436 1.06704 60.9845 1.76366 60.9845H16.7161C17.4127 60.9845 17.978 60.4436 17.978 59.7772ZM37.6503 3.28229V15.2331L17.234 15.2331L4.80507 3.28229L37.6503 3.28229ZM3.02556 4.99653L3.02556 58.5702L15.4545 58.7392V54.7553H12.325C11.6284 54.7553 11.063 54.2148 11.063 53.5484C11.063 52.882 11.6284 52.3411 12.325 52.3411H15.4545V49.927H12.325C11.6284 49.927 11.063 49.3861 11.063 48.7197C11.063 48.0532 11.6284 47.5124 12.325 47.5124H15.4545L15.4545 45.0982H9.65012C8.9535 45.0982 8.38816 44.5574 8.38816 43.891C8.38816 43.2249 8.9535 42.6841 9.65012 42.6841H15.4545V40.2695H12.325C11.6284 40.2695 11.063 39.7287 11.063 39.0626C11.063 38.3962 11.6284 37.8554 12.325 37.8554H15.4545V35.4412H12.325C11.6284 35.4412 11.063 34.9004 11.063 34.2339C11.063 33.5675 11.6284 33.0267 12.325 33.0267H15.4545V30.6125L9.65012 30.6125C8.9535 30.6125 8.38816 30.0717 8.38816 29.4052C8.38816 28.7388 8.9535 28.1983 9.65012 28.1983L15.4545 28.1983V25.7838H12.325C11.6284 25.7838 11.063 25.2429 11.063 24.5765C11.063 23.9105 11.6284 23.3696 12.325 23.3696H15.4545V20.9551H12.325C11.6284 20.9551 11.063 20.4146 11.063 19.7482C11.063 19.0818 11.6284 18.5409 12.325 18.5409H15.4545V16.8873L3.02556 4.99653Z" fill="#025A00"/>
</svg>
